<?xml version="1.0" standalone="no"?>
<!DOCTYPE svg PUBLIC "-//W3C//DTD SVG 20010904//EN"
 "http://www.w3.org/TR/2001/REC-SVG-20010904/DTD/svg10.dtd">
<svg version="1.0" xmlns="http://www.w3.org/2000/svg"
 width="560.000000pt" height="560.000000pt" viewBox="0 0 560.000000 560.000000"
 preserveAspectRatio="xMidYMid meet">
<metadata>
Created by potrace 1.11, written by Peter Selinger 2001-2013
</metadata>
<g transform="translate(0.000000,560.000000) scale(0.100000,-0.100000)"
fill="#000000" stroke="none">
<path d="M3080 5228 c-74 -30 -208 -63 -305 -73 -336 -38 -375 -44 -466 -70
-59 -17 -153 -57 -157 -67 -2 -4 -10 -8 -17 -8 -19 0 -141 -85 -210 -145 -123
-108 -232 -302 -259 -458 -3 -15 -7 -35 -10 -45 -39 -136 -47 -625 -12 -713 5
-12 -2 -20 -24 -29 -37 -15 -94 -71 -118 -114 -25 -46 -25 -446 -1 -491 26
-46 74 -92 116 -110 58 -25 68 -31 68 -41 3 -38 21 -122 42 -189 90 -286 268
-507 525 -652 52 -29 68 -43 68 -60 0 -18 -7 -23 -37 -28 -270 -42 -409 -94
-506 -191 -45 -46 -84 -122 -93 -186 -6 -48 -6 -48 -80 -83 -177 -85 -388
-260 -514 -425 -196 -259 -290 -548 -290 -897 l0 -153 2000 0 2001 0 -2 157
c-2 293 -61 522 -190 746 -134 230 -378 458 -611 570 -75 36 -76 37 -83 83
-16 107 -78 194 -185 258 -91 56 -206 89 -412 121 -32 5 -38 10 -38 30 0 15 7
26 20 30 79 25 311 218 398 331 100 130 177 318 218 532 3 13 12 25 22 28 40
12 88 41 115 69 60 63 62 71 62 305 0 186 -2 219 -18 247 -25 47 -84 100 -125
114 l-35 11 8 102 c14 161 13 462 -1 566 -18 139 -49 254 -95 348 -31 65 -57
100 -122 165 -45 45 -117 109 -160 141 -43 32 -81 65 -84 73 -3 7 3 37 14 66
35 95 17 105 -109 58 l-77 -29 12 32 c15 35 11 66 -7 66 -6 0 -44 -16 -85 -35
-40 -19 -74 -35 -76 -35 -2 0 6 17 18 38 21 39 19 73 -5 71 -7 0 -47 -14 -88
-31z"/>
</g>
</svg>
